HIERARCHY
ROOT Hips
{
  OFFSET 54.0644 91.5536 7.63941
  CHANNELS 6 Xposition Yposition Zposition Zrotation Xrotation Yrotation
  JOINT spine
  {
    OFFSET 0 6.84637 0.3937
    CHANNELS 3 Zrotation Xrotation Yrotation
    JOINT spine1
    {
      OFFSET 0 9.49621 0
      CHANNELS 3 Zrotation Xrotation Yrotation
      JOINT spine2
      {
        OFFSET 0 9.09909 0
        CHANNELS 3 Zrotation Xrotation Yrotation
        JOINT Neck
        {
          OFFSET 0 23.3612 1.11378
          CHANNELS 3 Zrotation Xrotation Yrotation
          JOINT Head
          {
            OFFSET 0 7.05802 0
            CHANNELS 3 Zrotation Xrotation Yrotation
            End Site
            {
              OFFSET 0 17.0844 -5.63419
            }
          }
        }
        JOINT RightShoulder
        {
          OFFSET -3.83136 9.82631 -0.533491
          CHANNELS 3 Zrotation Xrotation Yrotation
          JOINT RightArm
          {
            OFFSET 0 12.8881 0
            CHANNELS 3 Zrotation Xrotation Yrotation
            JOINT RightArmRoll
            {
              OFFSET 0 6.50617 0
              CHANNELS 3 Zrotation Xrotation Yrotation
              JOINT RightForeArm
              {
                OFFSET 0 18.9501 0
                CHANNELS 3 Zrotation Xrotation Yrotation
                JOINT RightForeArmRoll
                {
                  OFFSET 0 7.30092 0
                  CHANNELS 3 Zrotation Xrotation Yrotation
                  JOINT RightHand
                  {
                    OFFSET 0 14.6514 0
                    CHANNELS 3 Zrotation Xrotation Yrotation
                    End Site
                    {
                      OFFSET 0 0 0
                    }
                  }
                }
              }
            }
          }
        }
        JOINT LeftShoulder
        {
          OFFSET 3.83136 9.82631 -0.533491
          CHANNELS 3 Zrotation Xrotation Yrotation
          JOINT LeftArm
          {
            OFFSET 0 12.8881 0
            CHANNELS 3 Zrotation Xrotation Yrotation
            JOINT LeftArmRoll
            {
              OFFSET 0 6.50617 0
              CHANNELS 3 Zrotation Xrotation Yrotation
              JOINT LeftForeArm
              {
                OFFSET 0 18.9501 0
                CHANNELS 3 Zrotation Xrotation Yrotation
                JOINT LeftForeArmRoll
                {
                  OFFSET 0 7.30092 0
                  CHANNELS 3 Zrotation Xrotation Yrotation
                  JOINT LeftHand
                  {
                    OFFSET 0 14.6514 0
                    CHANNELS 3 Zrotation Xrotation Yrotation
                    End Site
                    {
                      OFFSET 0 0 0
                    }
                  }
                }
              }
            }
          }
        }
      }
    }
  }
  JOINT RightUpLeg
  {
    OFFSET -6.06837 -1.11278 -0.933477
    CHANNELS 3 Zrotation Xrotation Yrotation
    JOINT RightUpLegRoll
    {
      OFFSET 0 17.1796 0
      CHANNELS 3 Zrotation Xrotation Yrotation
      JOINT RightLeg
      {
        OFFSET 0 -21.2743 0
        CHANNELS 3 Zrotation Xrotation Yrotation
        JOINT RightLegRoll
        {
          OFFSET 0 21.3439 0
          CHANNELS 3 Zrotation Xrotation Yrotation
          JOINT RightFoot
          {
            OFFSET 0 17.7652 0
            CHANNELS 3 Zrotation Xrotation Yrotation
            JOINT RightToeBase
            {
              OFFSET 0 14.8508 0
              CHANNELS 3 Zrotation Xrotation Yrotation
              End Site
              {
                OFFSET 0.0062947 7.19214 -0.829004
              }
            }
          }
        }
      }
    }
  }
  JOINT LeftUpLeg
  {
    OFFSET 6.06837 -1.11278 -0.933477
    CHANNELS 3 Zrotation Xrotation Yrotation
    JOINT LeftUpLegRoll
    {
      OFFSET 0 17.1797 0
      CHANNELS 3 Zrotation Xrotation Yrotation
      JOINT LeftLeg
      {
        OFFSET 0 21.2742 0
        CHANNELS 3 Zrotation Xrotation Yrotation
        JOINT LeftLegRoll
        {
          OFFSET 0 21.5412 0
          CHANNELS 3 Zrotation Xrotation Yrotation
          JOINT LeftFoot
          {
            OFFSET 0 17.5679 0
            CHANNELS 3 Zrotation Xrotation Yrotation
            JOINT LeftToeBase
            {
              OFFSET 0 14.8508 0
              CHANNELS 3 Zrotation Xrotation Yrotation
              End Site
              {
                OFFSET -0.0282102 7.19214 -0.829004
              }
            }
          }
        }
      }
    }
  }
}
MOTION
Frames: 9
Frame Time: 0.00208333
54.7221 91.617 6.4669 0.44749 -5.88188 -0.333999 0.061176 -1.7345 -0.115261 0.112923 0.545121 -0.244249 0.115874 2.19018 -0.246058 -3.93126 26.7972 1.4123 2.73332 -5.00069 0.151089 64.5002 4.76548 1.96537 104.973 32.9883 -33.1108 -3.87268e-008 -4.69577e-007 -3.15394e-006 17.8024 60.8329 -11.9151 -1.55929e-005 -6.24621e-006 -3 8.02892 -4.9514 0.697683 -65.6304 1.45089 0.00373069 -113.134 34.82 23.9045 -3.70274e-006 1.2198e-007 1.82654e-006 -24.3972 56.3944 15.3205 5.86599e-007 -4.47974e-006 3.01052 -8.02888 -4.95146 -0.697678 174.864 -2.64203 1.454 -180 7.01517e-015 178.799 178.687 5.28206 179.886 -2.21988e-006 1.70857e-006 0.0320714 -18.3963 67.5371 19.1354 8.13649 25.2327 -3.48774 -175.972 -6.19709 -0.15838 4.54188e-006 -4.6773e-006 -1.22746 -1.89751 -4.65031 0.045867 -1.12992e-006 -2.57075e-006 -0.0381112 18.5976 67.7785 -19.3643 -8.13649 25.2327 3.48774 
54.6811 91.6115 6.46508 0.449467 -5.88005 -0.339742 0.0622892 -1.73422 -0.115392 0.113871 0.544195 -0.244771 0.116823 2.18925 -0.246596 -3.94639 26.8017 1.41468 2.74156 -5.0013 0.148161 64.5156 4.7733 1.96702 104.825 32.9577 -32.9702 -3.87268e-008 -4.69577e-007 -3.15394e-006 17.841 60.699 -11.9002 -1.55929e-005 -6.24621e-006 -3 8.02892 -4.9514 0.697683 -65.6402 1.43543 0.0133225 -112.982 34.7009 23.812 -3.70274e-006 1.2198e-007 1.82654e-006 -24.3821 56.5007 15.3438 5.86599e-007 -4.47974e-006 3.01051 -8.02888 -4.95146 -0.697678 174.86 -2.64266 1.45432 -180 7.01517e-015 178.799 178.69 5.28249 179.886 -2.21989e-006 1.70857e-006 0.0320863 -18.396 67.5368 19.135 8.13649 25.2327 -3.48774 -175.975 -6.19967 -0.158965 4.54188e-006 -4.6773e-006 -1.2275 -1.90038 -4.6495 0.04559 -1.12992e-006 -2.57075e-006 -0.0380375 18.5971 67.7779 -19.3638 -8.13649 25.2327 3.48774 
54.6964 91.6122 6.47144 0.451868 -5.87835 -0.345058 0.0633226 -1.73388 -0.115519 0.114665 0.543354 -0.24525 0.117618 2.18841 -0.24709 -3.96185 26.8057 1.41718 2.75021 -5.00202 0.145288 64.5312 4.78102 1.9686 104.677 32.9265 -32.824 -3.87268e-008 -4.69577e-007 -3.15394e-006 17.879 60.5617 -11.8845 -1.55929e-005 -6.24621e-006 -3 8.02892 -4.9514 0.697683 -65.6492 1.41925 0.0231816 -112.831 34.5822 23.7177 -3.70274e-006 1.2198e-007 1.82654e-006 -24.3661 56.6044 15.366 5.86599e-007 -4.47974e-006 3.01051 -8.02888 -4.95146 -0.697678 174.856 -2.64338 1.4553 -180 7.01517e-015 178.8 178.692 5.28277 179.886 -2.21988e-006 1.70857e-006 0.0321011 -18.3958 67.5364 19.1347 8.13649 25.2327 -3.48774 -175.979 -6.2022 -0.159147 4.54188e-006 -4.6773e-006 -1.22754 -1.90299 -4.64914 0.0453397 -1.12992e-006 -2.57075e-006 -0.0379799 18.5967 67.7775 -19.3634 -8.13649 25.2327 3.48774 
54.6822 91.6099 6.46509 0.454653 -5.87679 -0.349864 0.0642695 -1.73349 -0.115641 0.115318 0.542607 -0.245684 0.118272 2.18767 -0.247537 -3.97752 26.8093 1.41972 2.75936 -5.00285 0.142452 64.5464 4.78855 1.97013 104.528 32.8945 -32.6735 -3.87268e-008 -4.69577e-007 -3.15394e-006 17.9161 60.4227 -11.868 -1.55929e-005 -6.24621e-006 -3 8.02892 -4.9514 0.697683 -65.6572 1.40232 0.0333313 -112.682 34.4649 23.6204 -3.70274e-006 1.2198e-007 1.82654e-006 -24.3491 56.7041 15.3866 5.86599e-007 -4.47974e-006 3.0105 -8.02888 -4.95146 -0.697678 174.852 -2.64415 1.45705 -180 7.01517e-015 178.8 178.693 5.28277 179.886 -2.21988e-006 1.70857e-006 0.0321159 -18.3957 67.5363 19.1345 8.13649 25.2327 -3.48774 -175.983 -6.20454 -0.158899 4.54188e-006 -4.6773e-006 -1.22757 -1.90523 -4.64938 0.0451266 -1.12992e-006 -2.57075e-006 -0.0379441 18.5967 67.7773 -19.3633 -8.13649 25.2327 3.48774 
54.6833 91.6094 6.47077 0.457778 -5.87532 -0.354081 0.0651236 -1.73307 -0.115758 0.115842 0.541963 -0.24607 0.118797 2.18703 -0.247932 -3.99329 26.8122 1.42221 2.7691 -5.0038 0.139632 64.5608 4.79578 1.97163 104.38 32.8613 -32.52 -3.87268e-008 -4.69577e-007 -3.15394e-006 17.952 60.2835 -11.8511 -1.55929e-005 -6.24621e-006 -3 8.02892 -4.9514 0.697683 -65.6643 1.38456 0.0437949 -112.535 34.3496 23.5189 -3.70274e-006 1.2198e-007 1.82654e-006 -24.3308 56.798 15.405 5.86599e-007 -4.47974e-006 3.0105 -8.02888 -4.95146 -0.697678 174.847 -2.64493 1.45967 -180 7.01517e-015 178.8 178.692 5.28237 179.886 -2.21988e-006 1.70857e-006 0.0321307 -18.3957 67.5363 19.1345 8.13649 25.2327 -3.48774 -175.987 -6.20656 -0.158197 4.54188e-006 -4.6773e-006 -1.22761 -1.90701 -4.6504 0.044961 -1.12992e-006 -2.57075e-006 -0.0379363 18.5969 67.7776 -19.3635 -8.13649 25.2327 3.48774 
54.6843 91.6078 6.46474 0.461202 -5.87395 -0.357628 0.0658783 -1.73263 -0.115872 0.116251 0.541432 -0.246404 0.119206 2.1865 -0.248274 -4.00905 26.8142 1.42456 2.77953 -5.00487 0.136808 64.5738 4.80261 1.97314 104.232 32.8267 -32.3648 -3.87268e-008 -4.69577e-007 -3.15394e-006 17.9863 60.1457 -11.8339 -1.55929e-005 -6.24621e-006 -3 8.02892 -4.9514 0.697683 -65.6704 1.36594 0.0545956 -112.389 34.2373 23.4118 -3.70274e-006 1.2198e-007 1.82654e-006 -24.3113 56.8847 15.4207 5.86599e-007 -4.47974e-006 3.0105 -8.02888 -4.95146 -0.697678 174.841 -2.64566 1.46327 -180 7.01517e-015 178.8 178.69 5.28148 179.886 -2.21989e-006 1.70857e-006 0.0321454 -18.396 67.5365 19.1348 8.13649 25.2327 -3.48774 -175.992 -6.20812 -0.157015 4.54188e-006 -4.6773e-006 -1.22765 -1.90822 -4.65236 0.0448534 -1.12992e-006 -2.57075e-006 -0.0379622 18.5974 67.7783 -19.3641 -8.13649 25.2327 3.48774 
54.6816 91.6082 6.46838 0.464883 -5.87265 -0.360422 0.0665271 -1.7322 -0.115981 0.116556 0.541024 -0.246682 0.119513 2.18609 -0.248558 -4.0247 26.8154 1.4267 2.79074 -5.00606 0.13396 64.5851 4.80894 1.97468 104.086 32.7903 -32.2092 -3.87268e-008 -4.69577e-007 -3.15394e-006 18.0188 60.0109 -11.8166 -1.55929e-005 -6.24621e-006 -3 8.02892 -4.9514 0.697683 -65.6755 1.3464 0.0657569 -112.245 34.1287 23.298 -3.70274e-006 1.2198e-007 1.82654e-006 -24.2903 56.9626 15.4333 5.86599e-007 -4.47974e-006 3.01049 -8.02888 -4.95146 -0.697678 174.836 -2.64632 1.46796 -180 7.01517e-015 178.8 178.687 5.27996 179.886 -2.21989e-006 1.70857e-006 0.0321602 -18.3965 67.537 19.1354 8.13649 25.2327 -3.48774 -175.996 -6.20909 -0.155326 4.54188e-006 -4.6773e-006 -1.22769 -1.90876 -4.65543 0.0448142 -1.12992e-006 -2.57075e-006 -0.0380278 18.5984 67.7795 -19.3651 -8.13649 25.2327 3.48774 
54.6816 91.6092 6.48124 0.468778 -5.8714 -0.362384 0.0670634 -1.73178 -0.116086 0.11677 0.540747 -0.246902 0.119729 2.18581 -0.248782 -4.04011 26.8155 1.42854 2.80284 -5.00739 0.131069 64.5942 4.81468 1.97629 103.943 32.7518 -32.0546 -3.87268e-008 -4.69577e-007 -3.15394e-006 18.0491 59.8808 -11.7993 -1.55929e-005 -6.24621e-006 -3 8.02892 -4.9514 0.697683 -65.6794 1.32589 0.0773019 -112.101 34.0246 23.1762 -3.70274e-006 1.2198e-007 1.82654e-006 -24.2677 57.0302 15.4423 5.86599e-007 -4.47974e-006 3.01049 -8.02888 -4.95146 -0.697678 174.83 -2.64685 1.47384 -180 7.01517e-015 178.8 178.681 5.27771 179.887 -2.21988e-006 1.70857e-006 0.0321749 -18.3972 67.5379 19.1364 8.13649 25.2327 -3.48774 -176.001 -6.20932 -0.153105 4.54188e-006 -4.6773e-006 -1.22773 -1.90851 -4.65978 0.044854 -1.12992e-006 -2.57075e-006 -0.038139 18.5998 67.7812 -19.3667 -8.13649 25.2327 3.48774 
54.6793 91.6082 6.48004 0.472846 -5.87019 -0.363432 0.0674808 -1.73138 -0.116188 0.116905 0.540611 -0.24706 0.119867 2.18568 -0.248942 -4.05517 26.8144 1.43 2.81591 -5.00884 0.128114 64.6004 4.81971 1.97798 103.802 32.7109 -31.9022 -3.87268e-008 -4.69577e-007 -3.15394e-006 18.0769 59.7568 -11.7823 -1.55929e-005 -6.24621e-006 -3 8.02892 -4.9514 0.697683 -65.6822 1.30435 0.089254 -111.959 33.9258 23.0451 -3.70274e-006 1.2198e-007 1.82654e-006 -24.2434 57.0859 15.447 5.86599e-007 -4.47974e-006 3.01048 -8.02888 -4.95146 -0.697678 174.824 -2.64721 1.48102 -180 7.01517e-015 178.8 178.674 5.27462 179.887 -2.21989e-006 1.70857e-006 0.0321895 -18.3984 67.5393 19.1378 8.13649 25.2327 -3.48774 -176.005 -6.20869 -0.150326 4.54188e-006 -4.6773e-006 -1.22776 -1.90738 -4.66557 0.044983 -1.12992e-006 -2.57075e-006 -0.0383018 18.6018 67.7836 -19.3688 -8.13649 25.2327 3.48774 
